<svg width="29" height="29" viewBox="8.5 8.5 29 29" fill="none" xmlns="http://www.w3.org/2000/svg">
<path d="M16.6736 21.0577H22.4731V15.2885C22.4731 14.1474 22.133 13.032 21.4957 12.0832C20.8585 11.1345 19.9527 10.395 18.893 9.95839C17.8332 9.52173 16.6671 9.40748 15.5421 9.63008C14.4171 9.85269 13.3838 10.4022 12.5727 11.209C11.7616 12.0158 11.2092 13.0438 10.9855 14.1629C10.7617 15.2821 10.8765 16.4421 11.3155 17.4962C11.7544 18.5504 12.4978 19.4515 13.4515 20.0854C14.4053 20.7193 15.5265 21.0577 16.6736 21.0577ZM16.6736 11.8269C17.5965 11.8269 18.4815 12.1916 19.1341 12.8408C19.7867 13.4899 20.1533 14.3704 20.1533 15.2885V18.75H16.6736C15.7507 18.75 14.8656 18.3853 14.213 17.7361C13.5605 17.087 13.1938 16.2065 13.1938 15.2885C13.1938 14.3704 13.5605 13.4899 14.213 12.8408C14.8656 12.1916 15.7507 11.8269 16.6736 11.8269Z" fill="#E8C61E"/>
<path d="M31.1726 35.4808C32.7107 35.4808 34.1859 34.8729 35.2735 33.791C36.3611 32.709 36.9722 31.2416 36.9722 29.7115C36.9722 28.1814 36.3611 26.714 35.2735 25.6321C34.1859 24.5501 32.7107 23.9423 31.1726 23.9423H25.373V29.7115C25.373 31.2416 25.9841 32.709 27.0717 33.791C28.1593 34.8729 29.6345 35.4808 31.1726 35.4808ZM27.6929 26.25H31.1726C31.8608 26.25 32.5336 26.453 33.1058 26.8334C33.6781 27.2137 34.1241 27.7543 34.3875 28.3868C34.6508 29.0194 34.7197 29.7154 34.5855 30.3868C34.4512 31.0583 34.1198 31.6751 33.6331 32.1592C33.1465 32.6433 32.5265 32.973 31.8515 33.1065C31.1765 33.2401 30.4768 33.1716 29.841 32.9096C29.2051 32.6476 28.6617 32.2039 28.2793 31.6346C27.897 31.0654 27.6929 30.3961 27.6929 29.7115V26.25Z" fill="#10B7C8"/>
<path d="M36.9722 15.2885C36.9722 13.7584 36.3611 12.2909 35.2735 11.209C34.1859 10.1271 32.7107 9.51923 31.1726 9.51923C29.6345 9.51923 28.1593 10.1271 27.0717 11.209C25.9841 12.2909 25.373 13.7584 25.373 15.2885V21.0577H31.1726C32.7107 21.0577 34.1859 20.4499 35.2735 19.3679C36.3611 18.286 36.9722 16.8186 36.9722 15.2885ZM27.6929 18.75V15.2885C27.6929 14.6038 27.897 13.9346 28.2793 13.3653C28.6617 12.7961 29.2051 12.3524 29.841 12.0904C30.4768 11.8284 31.1765 11.7599 31.8515 11.8934C32.5265 12.027 33.1465 12.3567 33.6331 12.8408C34.1198 13.3249 34.4512 13.9417 34.5855 14.6131C34.7197 15.2846 34.6508 15.9806 34.3875 16.6131C34.1241 17.2456 33.6781 17.7863 33.1058 18.1666C32.5336 18.547 31.8608 18.75 31.1726 18.75H27.6929Z" fill="#321FEF"/>
<path d="M10.8743 29.7115C10.8743 31.2416 11.4853 32.709 12.5729 33.791C13.6605 34.8729 15.1357 35.4808 16.6738 35.4808C18.212 35.4808 19.6871 34.8729 20.7747 33.791C21.8624 32.709 22.4734 31.2416 22.4734 29.7115V23.9423H16.6738C15.1357 23.9423 13.6605 24.5501 12.5729 25.6321C11.4853 26.714 10.8743 28.1814 10.8743 29.7115ZM20.1536 26.25V29.7115C20.1536 30.3961 19.9495 31.0654 19.5671 31.6346C19.1848 32.2039 18.6413 32.6476 18.0055 32.9096C17.3696 33.1716 16.67 33.2401 15.995 33.1065C15.32 32.973 14.6999 32.6433 14.2133 32.1592C13.7266 31.6751 13.3952 31.0583 13.261 30.3868C13.1267 29.7154 13.1956 29.0194 13.459 28.3868C13.7223 27.7543 14.1683 27.2137 14.7406 26.8334C15.3128 26.453 15.9856 26.25 16.6738 26.25H20.1536Z" fill="#62186F"/>
</svg>
