<svg width="185" height="45" viewBox="0 0 185 45" fill="none" xmlns="http://www.w3.org/2000/svg">
<path d="M16.6736 21.0577H22.4731V15.2885C22.4731 14.1474 22.133 13.032 21.4957 12.0832C20.8585 11.1345 19.9527 10.395 18.893 9.95839C17.8332 9.52173 16.6671 9.40748 15.5421 9.63008C14.4171 9.85269 13.3838 10.4022 12.5727 11.209C11.7616 12.0158 11.2092 13.0438 10.9855 14.1629C10.7617 15.2821 10.8765 16.4421 11.3155 17.4962C11.7544 18.5504 12.4978 19.4515 13.4515 20.0854C14.4053 20.7193 15.5265 21.0577 16.6736 21.0577ZM16.6736 11.8269C17.5965 11.8269 18.4815 12.1916 19.1341 12.8408C19.7867 13.4899 20.1533 14.3704 20.1533 15.2885V18.75H16.6736C15.7507 18.75 14.8656 18.3853 14.213 17.7361C13.5605 17.087 13.1938 16.2065 13.1938 15.2885C13.1938 14.3704 13.5605 13.4899 14.213 12.8408C14.8656 12.1916 15.7507 11.8269 16.6736 11.8269Z" fill="#E8C61E"/>
<path d="M31.1726 35.4808C32.7107 35.4808 34.1859 34.8729 35.2735 33.791C36.3611 32.709 36.9722 31.2416 36.9722 29.7115C36.9722 28.1814 36.3611 26.714 35.2735 25.6321C34.1859 24.5501 32.7107 23.9423 31.1726 23.9423H25.373V29.7115C25.373 31.2416 25.9841 32.709 27.0717 33.791C28.1593 34.8729 29.6345 35.4808 31.1726 35.4808ZM27.6929 26.25H31.1726C31.8608 26.25 32.5336 26.453 33.1058 26.8334C33.6781 27.2137 34.1241 27.7543 34.3875 28.3868C34.6508 29.0194 34.7197 29.7154 34.5855 30.3868C34.4512 31.0583 34.1198 31.6751 33.6331 32.1592C33.1465 32.6433 32.5265 32.973 31.8515 33.1065C31.1765 33.2401 30.4768 33.1716 29.841 32.9096C29.2051 32.6476 28.6617 32.2039 28.2793 31.6346C27.897 31.0654 27.6929 30.3961 27.6929 29.7115V26.25Z" fill="#10B7C8"/>
<path d="M36.9722 15.2885C36.9722 13.7584 36.3611 12.2909 35.2735 11.209C34.1859 10.1271 32.7107 9.51923 31.1726 9.51923C29.6345 9.51923 28.1593 10.1271 27.0717 11.209C25.9841 12.2909 25.373 13.7584 25.373 15.2885V21.0577H31.1726C32.7107 21.0577 34.1859 20.4499 35.2735 19.3679C36.3611 18.286 36.9722 16.8186 36.9722 15.2885ZM27.6929 18.75V15.2885C27.6929 14.6038 27.897 13.9346 28.2793 13.3653C28.6617 12.7961 29.2051 12.3524 29.841 12.0904C30.4768 11.8284 31.1765 11.7599 31.8515 11.8934C32.5265 12.027 33.1465 12.3567 33.6331 12.8408C34.1198 13.3249 34.4512 13.9417 34.5855 14.6131C34.7197 15.2846 34.6508 15.9806 34.3875 16.6131C34.1241 17.2456 33.6781 17.7863 33.1058 18.1666C32.5336 18.547 31.8608 18.75 31.1726 18.75H27.6929Z" fill="#321FEF"/>
<path d="M10.8743 29.7115C10.8743 31.2416 11.4853 32.709 12.5729 33.791C13.6605 34.8729 15.1357 35.4808 16.6738 35.4808C18.212 35.4808 19.6871 34.8729 20.7747 33.791C21.8624 32.709 22.4734 31.2416 22.4734 29.7115V23.9423H16.6738C15.1357 23.9423 13.6605 24.5501 12.5729 25.6321C11.4853 26.714 10.8743 28.1814 10.8743 29.7115ZM20.1536 26.25V29.7115C20.1536 30.3961 19.9495 31.0654 19.5671 31.6346C19.1848 32.2039 18.6413 32.6476 18.0055 32.9096C17.3696 33.1716 16.67 33.2401 15.995 33.1065C15.32 32.973 14.6999 32.6433 14.2133 32.1592C13.7266 31.6751 13.3952 31.0583 13.261 30.3868C13.1267 29.7154 13.1956 29.0194 13.459 28.3868C13.7223 27.7543 14.1683 27.2137 14.7406 26.8334C15.3128 26.453 15.9856 26.25 16.6738 26.25H20.1536Z" fill="#62186F"/>
<path d="M52.3555 29.074H50.981V17.3971H46.5125V16.1538H56.8791V17.3885H52.3555V29.074Z" fill="#F3F3F3"/>
<path d="M59.8457 29.2962C58.9706 29.32 58.1134 29.0463 57.4157 28.5202C57.0942 28.2577 56.8381 27.9248 56.6676 27.5475C56.497 27.1701 56.4166 26.7586 56.4327 26.3452C56.4194 25.9288 56.5071 25.5154 56.6883 25.1399C56.8695 24.7644 57.1389 24.4377 57.4737 24.1875C58.2362 23.635 59.1642 23.3554 60.1067 23.3942C61.2405 23.3871 62.3549 23.6862 63.3312 24.2596V23.3654C63.3312 21.8788 62.3482 21.1356 60.3822 21.1356C59.3364 21.1338 58.3149 21.4487 57.4534 22.0385V20.7692C58.4249 20.2052 59.5362 19.9243 60.6605 19.9587C61.8843 19.9587 62.8586 20.2471 63.5835 20.824C63.9417 21.1157 64.2261 21.4869 64.4139 21.9077C64.6018 22.3285 64.6878 22.7872 64.6651 23.2471V26.9163C64.6476 27.2049 64.7295 27.4908 64.8971 27.7269C64.9695 27.8212 65.0637 27.8967 65.1718 27.9469C65.2799 27.9972 65.3985 28.0207 65.5177 28.0154C65.6972 28.0194 65.8751 27.9809 66.0367 27.9029V28.9356C65.7668 29.0897 65.4571 29.161 65.1465 29.1404C64.7416 29.1538 64.3448 29.0263 64.0243 28.7798C63.7002 28.5139 63.4923 28.1334 63.4443 27.7183C63.0027 28.2339 62.4497 28.6437 61.8265 28.9169C61.2034 29.1901 60.5263 29.3198 59.8457 29.2962ZM60.2169 28.0962C60.8293 28.0976 61.4331 27.9521 61.977 27.6721C62.5009 27.4169 62.9629 27.0518 63.3312 26.6019V25.3673C62.4733 24.7946 61.4646 24.4866 60.4315 24.4817C59.7522 24.4458 59.0777 24.6125 58.4944 24.9606C58.2712 25.0982 58.0879 25.2914 57.9628 25.5211C57.8377 25.7508 57.775 26.009 57.7811 26.2702C57.7707 26.5341 57.8282 26.7962 57.9479 27.0319C58.0676 27.2676 58.2457 27.4691 58.4654 27.6173C58.9855 27.9531 59.5974 28.1203 60.2169 28.0962Z" fill="#F3F3F3"/>
<path d="M68.2085 29.074V16.1538H69.5424V21.5769C69.9447 21.0427 70.4718 20.614 71.0781 20.328C71.6845 20.042 72.3517 19.9073 73.0221 19.9356C73.6301 19.9181 74.2347 20.0318 74.7943 20.2688C75.3539 20.5058 75.8553 20.8606 76.2641 21.3086C77.0802 22.223 77.5309 23.4032 77.5309 24.626C77.5309 25.8487 77.0802 27.029 76.2641 27.9433C75.8542 28.3902 75.352 28.7435 74.7919 28.979C74.2318 29.2145 73.627 29.3267 73.0192 29.3077C72.3488 29.3359 71.6815 29.2013 71.0752 28.9153C70.4689 28.6293 69.9418 28.2006 69.5395 27.6663V29.0856L68.2085 29.074ZM69.5424 23.1548V26.0856C69.8262 26.6811 70.2718 27.1857 70.8288 27.5425C71.3858 27.8994 72.032 28.0941 72.6944 28.1048C73.1525 28.1207 73.6087 28.0409 74.0338 27.8705C74.4589 27.7 74.8433 27.4428 75.1622 27.1154C75.7935 26.4455 76.1449 25.5616 76.1449 24.6433C76.1449 23.725 75.7935 22.8411 75.1622 22.1711C74.8463 21.8382 74.463 21.5758 74.0376 21.4013C73.6122 21.2268 73.1544 21.144 72.6944 21.1586C72.0208 21.1608 71.3628 21.3616 70.8038 21.7356C70.2521 22.0749 69.8134 22.5686 69.5424 23.1548Z" fill="#F3F3F3"/>
<path d="M86.3786 29.2961C85.4973 29.3162 84.621 29.1589 83.8023 28.8337C82.9836 28.5085 82.2394 28.0222 81.6143 27.4038C80.3539 26.1481 79.7236 24.549 79.7236 22.6067C79.7236 20.6644 80.3539 19.0721 81.6143 17.8298C82.236 17.2063 82.9794 16.7161 83.7988 16.3891C84.6182 16.0622 85.4961 15.9056 86.3786 15.9288C87.6584 15.8939 88.9211 16.2275 90.0149 16.8894V18.2913C88.9456 17.5906 87.6939 17.2157 86.4134 17.2125C85.7114 17.198 85.0139 17.3284 84.3651 17.5955C83.7163 17.8626 83.1301 18.2606 82.6437 18.7644C82.1389 19.2694 81.7434 19.8718 81.4816 20.5346C81.2197 21.1974 81.0971 21.9065 81.1213 22.6183C81.0961 23.3332 81.2181 24.0456 81.4799 24.7118C81.7417 25.3781 82.1378 25.984 82.6437 26.4923C83.1386 26.9924 83.7313 27.3862 84.3851 27.6497C85.0389 27.9131 85.7401 28.0405 86.4453 28.024C87.844 28.0598 89.2102 27.602 90.302 26.7317V28.151C89.1518 28.9419 87.7761 29.3435 86.3786 29.2961Z" fill="#F3F3F3"/>
<path d="M93.5004 21.326C94.4412 20.4423 95.6862 19.9501 96.9801 19.9501C98.2741 19.9501 99.519 20.4423 100.46 21.326C101.328 22.2084 101.814 23.3941 101.814 24.6288C101.814 25.8636 101.328 27.0493 100.46 27.9317C99.5138 28.8052 98.2708 29.2906 96.9801 29.2906C95.6894 29.2906 94.4464 28.8052 93.5004 27.9317C92.6322 27.0493 92.146 25.8636 92.146 24.6288C92.146 23.3941 92.6322 22.2084 93.5004 21.326ZM100.46 24.6288C100.468 24.1688 100.384 23.7117 100.213 23.2842C100.042 22.8568 99.7866 22.4676 99.4623 22.1394C98.7942 21.5009 97.9037 21.1443 96.9772 21.1443C96.0507 21.1443 95.1602 21.5009 94.4921 22.1394C93.8602 22.8125 93.5087 23.6992 93.5087 24.6202C93.5087 25.5412 93.8602 26.4278 94.4921 27.101C95.1583 27.7414 96.0478 28.1006 96.9743 28.1033C97.9008 28.106 98.7924 27.752 99.4623 27.1154C99.7868 26.7882 100.042 26.3995 100.212 25.9724C100.383 25.5452 100.465 25.0883 100.454 24.6288H100.46Z" fill="#F3F3F3"/>
<path d="M105.645 29.074H104.311V20.1663H105.645V21.4933C106.387 20.4606 107.463 19.9442 108.872 19.9442C109.518 19.9227 110.157 20.0827 110.716 20.4058C111.205 20.6975 111.571 21.1556 111.746 21.6952C112.101 21.1576 112.59 20.7197 113.164 20.4231C113.79 20.0971 114.487 19.9324 115.194 19.9442C115.628 19.9197 116.063 19.9905 116.466 20.1515C116.87 20.3125 117.234 20.5598 117.531 20.876C118.088 21.4952 118.366 22.3769 118.366 23.5212V29.074H117.029V23.8183C117.029 22.0702 116.288 21.1971 114.805 21.199C114.217 21.2175 113.65 21.4193 113.184 21.776C112.672 22.1204 112.255 22.5864 111.969 23.1317C111.969 23.2529 111.969 23.3942 111.969 23.5558C111.969 23.7144 111.969 23.8442 111.987 23.925C112.004 24.0058 111.987 24.0779 111.987 24.1269V29.0885H110.65V23.8183C110.65 22.0702 109.908 21.1971 108.426 21.199C107.85 21.2177 107.293 21.4109 106.831 21.7529C106.328 22.0777 105.914 22.5205 105.624 23.0423L105.645 29.074Z" fill="#F3F3F3"/>
<path d="M122.687 29.0741H121.35V20.1664H122.687V21.4933C123.429 20.4606 124.504 19.9442 125.911 19.9442C126.558 19.9224 127.198 20.0823 127.758 20.4058C128.246 20.6976 128.611 21.1558 128.785 21.6952C129.141 21.1589 129.628 20.7213 130.2 20.4231C130.826 20.0969 131.524 19.9322 132.23 19.9442C132.664 19.9199 133.099 19.9908 133.502 20.1518C133.906 20.3128 134.27 20.56 134.567 20.876C135.135 21.4971 135.42 22.3789 135.42 23.5212V29.0741H134.086V23.8183C134.086 22.0702 133.344 21.1971 131.862 21.1991C131.273 21.2175 130.705 21.4193 130.238 21.776C129.726 22.1212 129.309 22.587 129.023 23.1318C129.023 23.2529 129.023 23.3943 129.023 23.5558C129.023 23.7144 129.037 23.8443 129.043 23.925C129.049 24.0058 129.043 24.0779 129.043 24.1269V29.0885H127.709V23.8183C127.709 22.0702 126.967 21.1971 125.482 21.1991C124.906 21.2182 124.35 21.4114 123.887 21.7529C123.386 22.0778 122.972 22.5207 122.684 23.0423L122.687 29.0741Z" fill="#F3F3F3"/>
<path d="M141.042 29.2962C140.166 29.3218 139.307 29.048 138.609 28.5202C138.288 28.2577 138.032 27.9248 137.861 27.5475C137.691 27.1701 137.61 26.7586 137.626 26.3452C137.613 25.9291 137.7 25.5158 137.881 25.1403C138.061 24.7648 138.33 24.438 138.664 24.1875C139.427 23.635 140.355 23.3554 141.297 23.3942C142.432 23.3874 143.547 23.6865 144.525 24.2596V23.3654C144.525 21.8788 143.542 21.1356 141.576 21.1356C140.529 21.1337 139.507 21.4486 138.644 22.0385V20.7692C139.616 20.2048 140.729 19.9239 141.854 19.9587C143.078 19.9587 144.051 20.2471 144.774 20.824C145.133 21.1154 145.418 21.4864 145.606 21.9073C145.795 22.3281 145.881 22.787 145.859 23.2471V26.9163C145.841 27.2049 145.923 27.4908 146.091 27.7269C146.163 27.821 146.258 27.8964 146.366 27.9466C146.474 27.9968 146.592 28.0204 146.711 28.0154C146.891 28.0194 147.069 27.9809 147.23 27.9029V28.9356C146.96 29.0897 146.651 29.161 146.34 29.1404C145.935 29.1538 145.538 29.0263 145.218 28.7798C144.9 28.5107 144.698 28.1309 144.652 27.7183C144.21 28.2355 143.655 28.6461 143.029 28.9194C142.404 29.1927 141.725 29.3215 141.042 29.2962ZM141.413 28.0962C142.027 28.0973 142.631 27.9518 143.176 27.6721C143.7 27.4163 144.162 27.0513 144.531 26.6019V25.3673C143.672 24.7953 142.664 24.4873 141.631 24.4817C140.951 24.4455 140.275 24.6123 139.691 24.9606C139.468 25.0982 139.284 25.2914 139.159 25.5211C139.034 25.7508 138.972 26.009 138.978 26.2702C138.967 26.5344 139.025 26.7969 139.145 27.0327C139.265 27.2685 139.444 27.4698 139.665 27.6173C140.184 27.9535 140.795 28.1209 141.413 28.0962Z" fill="#F3F3F3"/>
<path d="M150.742 23.0769V29.0884H149.405V20.1663H150.742V21.5308C151.184 21.0204 151.734 20.6135 152.353 20.3392C152.971 20.065 153.643 19.9301 154.32 19.9442C155.42 19.9442 156.264 20.2673 156.852 20.9134C157.44 21.5596 157.73 22.4721 157.722 23.6509V29.074H156.388V23.9423C156.388 22.1096 155.541 21.1942 153.848 21.1961C153.204 21.2056 152.578 21.4065 152.05 21.7731C151.517 22.0991 151.069 22.5458 150.742 23.0769Z" fill="#F3F3F3"/>
<path d="M168.042 21.5856V16.1538H169.376V29.0654H168.042V27.6548C167.64 28.1891 167.113 28.6177 166.506 28.9037C165.9 29.1897 165.233 29.3244 164.562 29.2961C163.955 29.3151 163.35 29.203 162.79 28.9675C162.23 28.732 161.727 28.3786 161.318 27.9317C160.502 27.0174 160.051 25.8371 160.051 24.6144C160.051 23.3917 160.502 22.2114 161.318 21.2971C161.727 20.8502 162.23 20.4969 162.79 20.2614C163.35 20.0258 163.955 19.9137 164.562 19.9327C165.234 19.9057 165.902 20.0422 166.508 20.3303C167.115 20.6183 167.641 21.0492 168.042 21.5856ZM168.042 26.0856V23.1548C167.775 22.5601 167.336 22.058 166.781 21.7125C166.222 21.3388 165.564 21.1381 164.89 21.1356C164.43 21.121 163.972 21.2037 163.547 21.3782C163.122 21.5528 162.738 21.8152 162.422 22.1481C161.791 22.818 161.44 23.7019 161.44 24.6202C161.44 25.5385 161.791 26.4224 162.422 27.0923C162.742 27.4189 163.127 27.676 163.551 27.8473C163.976 28.0186 164.432 28.1004 164.89 28.0875C165.553 28.0768 166.199 27.882 166.756 27.5252C167.313 27.1684 167.758 26.6638 168.042 26.0683V26.0856Z" fill="#F3F3F3"/>
</svg>
